<svg xmlns="http://www.w3.org/2000/svg" width="62.796" height="62.796" viewBox="0 0 62.796 62.796"><g transform="translate(-29 -73.952)"><g transform="translate(29 73.952)"><ellipse cx="2.162" cy="2.162" rx="2.162" ry="2.162" fill="#00e5ff"/><ellipse cx="2.162" cy="2.162" rx="2.162" ry="2.162" transform="translate(8.442)" fill="#00e5ff"/><ellipse cx="2.162" cy="2.162" rx="2.162" ry="2.162" transform="translate(16.883)" fill="#00e5ff"/><ellipse cx="2.162" cy="2.162" rx="2.162" ry="2.162" transform="translate(25.325)" fill="#00e5ff"/><g transform="translate(0 8.442)"><ellipse cx="2.162" cy="2.162" rx="2.162" ry="2.162" transform="translate(0 0)" fill="#00e5ff"/><ellipse cx="2.162" cy="2.162" rx="2.162" ry="2.162" transform="translate(8.442 0)" fill="#00e5ff"/><ellipse cx="2.162" cy="2.162" rx="2.162" ry="2.162" transform="translate(16.883 0)" fill="#00e5ff"/><ellipse cx="2.162" cy="2.162" rx="2.162" ry="2.162" transform="translate(25.325 0)" fill="#00e5ff"/></g><g transform="translate(0 16.883)"><ellipse cx="2.162" cy="2.162" rx="2.162" ry="2.162" transform="translate(0 0)" fill="#00e5ff"/><ellipse cx="2.162" cy="2.162" rx="2.162" ry="2.162" transform="translate(8.442 0)" fill="#00e5ff"/><ellipse cx="2.162" cy="2.162" rx="2.162" ry="2.162" transform="translate(16.883 0)" fill="#00e5ff"/><ellipse cx="2.162" cy="2.162" rx="2.162" ry="2.162" transform="translate(25.325 0)" fill="#00e5ff"/></g><g transform="translate(0 25.325)"><ellipse cx="2.162" cy="2.162" rx="2.162" ry="2.162" transform="translate(0 0)" fill="#00e5ff"/><ellipse cx="2.162" cy="2.162" rx="2.162" ry="2.162" transform="translate(8.442 0)" fill="#00e5ff"/><ellipse cx="2.162" cy="2.162" rx="2.162" ry="2.162" transform="translate(16.883 0)" fill="#00e5ff"/><ellipse cx="2.162" cy="2.162" rx="2.162" ry="2.162" transform="translate(25.325 0)" fill="#00e5ff"/></g><g transform="translate(33.148)"><ellipse cx="2.162" cy="2.162" rx="2.162" ry="2.162" fill="#00e5ff"/><ellipse cx="2.162" cy="2.162" rx="2.162" ry="2.162" transform="translate(8.442)" fill="#00e5ff"/><ellipse cx="2.162" cy="2.162" rx="2.162" ry="2.162" transform="translate(16.883)" fill="#00e5ff"/><ellipse cx="2.162" cy="2.162" rx="2.162" ry="2.162" transform="translate(25.325)" fill="#00e5ff"/><g transform="translate(0 8.442)"><ellipse cx="2.162" cy="2.162" rx="2.162" ry="2.162" transform="translate(0 0)" fill="#00e5ff"/><ellipse cx="2.162" cy="2.162" rx="2.162" ry="2.162" transform="translate(8.442 0)" fill="#00e5ff"/><ellipse cx="2.162" cy="2.162" rx="2.162" ry="2.162" transform="translate(16.883 0)" fill="#00e5ff"/><ellipse cx="2.162" cy="2.162" rx="2.162" ry="2.162" transform="translate(25.325 0)" fill="#00e5ff"/></g><g transform="translate(0 16.883)"><ellipse cx="2.162" cy="2.162" rx="2.162" ry="2.162" transform="translate(0 0)" fill="#00e5ff"/><ellipse cx="2.162" cy="2.162" rx="2.162" ry="2.162" transform="translate(8.442 0)" fill="#00e5ff"/><ellipse cx="2.162" cy="2.162" rx="2.162" ry="2.162" transform="translate(16.883 0)" fill="#00e5ff"/><ellipse cx="2.162" cy="2.162" rx="2.162" ry="2.162" transform="translate(25.325 0)" fill="#00e5ff"/></g><g transform="translate(0 25.325)"><ellipse cx="2.162" cy="2.162" rx="2.162" ry="2.162" transform="translate(0 0)" fill="#00e5ff"/><ellipse cx="2.162" cy="2.162" rx="2.162" ry="2.162" transform="translate(8.442 0)" fill="#00e5ff"/><ellipse cx="2.162" cy="2.162" rx="2.162" ry="2.162" transform="translate(16.883 0)" fill="#00e5ff"/><ellipse cx="2.162" cy="2.162" rx="2.162" ry="2.162" transform="translate(25.325 0)" fill="#00e5ff"/></g></g></g><g transform="translate(29 107.1)"><ellipse cx="2.162" cy="2.162" rx="2.162" ry="2.162" fill="#00e5ff"/><ellipse cx="2.162" cy="2.162" rx="2.162" ry="2.162" transform="translate(8.442)" fill="#00e5ff"/><ellipse cx="2.162" cy="2.162" rx="2.162" ry="2.162" transform="translate(16.883)" fill="#00e5ff"/><ellipse cx="2.162" cy="2.162" rx="2.162" ry="2.162" transform="translate(25.325)" fill="#00e5ff"/><g transform="translate(0 8.442)"><ellipse cx="2.162" cy="2.162" rx="2.162" ry="2.162" transform="translate(0 0)" fill="#00e5ff"/><ellipse cx="2.162" cy="2.162" rx="2.162" ry="2.162" transform="translate(8.442 0)" fill="#00e5ff"/><ellipse cx="2.162" cy="2.162" rx="2.162" ry="2.162" transform="translate(16.883 0)" fill="#00e5ff"/><ellipse cx="2.162" cy="2.162" rx="2.162" ry="2.162" transform="translate(25.325 0)" fill="#00e5ff"/></g><g transform="translate(0 16.883)"><ellipse cx="2.162" cy="2.162" rx="2.162" ry="2.162" transform="translate(0 0)" fill="#00e5ff"/><ellipse cx="2.162" cy="2.162" rx="2.162" ry="2.162" transform="translate(8.442 0)" fill="#00e5ff"/><ellipse cx="2.162" cy="2.162" rx="2.162" ry="2.162" transform="translate(16.883 0)" fill="#00e5ff"/><ellipse cx="2.162" cy="2.162" rx="2.162" ry="2.162" transform="translate(25.325 0)" fill="#00e5ff"/></g><g transform="translate(0 25.325)"><ellipse cx="2.162" cy="2.162" rx="2.162" ry="2.162" transform="translate(0 0)" fill="#00e5ff"/><ellipse cx="2.162" cy="2.162" rx="2.162" ry="2.162" transform="translate(8.442 0)" fill="#00e5ff"/><ellipse cx="2.162" cy="2.162" rx="2.162" ry="2.162" transform="translate(16.883 0)" fill="#00e5ff"/><ellipse cx="2.162" cy="2.162" rx="2.162" ry="2.162" transform="translate(25.325 0)" fill="#00e5ff"/></g><g transform="translate(33.148)"><ellipse cx="2.162" cy="2.162" rx="2.162" ry="2.162" fill="#00e5ff"/><ellipse cx="2.162" cy="2.162" rx="2.162" ry="2.162" transform="translate(8.442)" fill="#00e5ff"/><ellipse cx="2.162" cy="2.162" rx="2.162" ry="2.162" transform="translate(16.883)" fill="#00e5ff"/><ellipse cx="2.162" cy="2.162" rx="2.162" ry="2.162" transform="translate(25.325)" fill="#00e5ff"/><g transform="translate(0 8.442)"><ellipse cx="2.162" cy="2.162" rx="2.162" ry="2.162" transform="translate(0 0)" fill="#00e5ff"/><ellipse cx="2.162" cy="2.162" rx="2.162" ry="2.162" transform="translate(8.442 0)" fill="#00e5ff"/><ellipse cx="2.162" cy="2.162" rx="2.162" ry="2.162" transform="translate(16.883 0)" fill="#00e5ff"/><ellipse cx="2.162" cy="2.162" rx="2.162" ry="2.162" transform="translate(25.325 0)" fill="#00e5ff"/></g><g transform="translate(0 16.883)"><ellipse cx="2.162" cy="2.162" rx="2.162" ry="2.162" transform="translate(0 0)" fill="#00e5ff"/><ellipse cx="2.162" cy="2.162" rx="2.162" ry="2.162" transform="translate(8.442 0)" fill="#00e5ff"/><ellipse cx="2.162" cy="2.162" rx="2.162" ry="2.162" transform="translate(16.883 0)" fill="#00e5ff"/><ellipse cx="2.162" cy="2.162" rx="2.162" ry="2.162" transform="translate(25.325 0)" fill="#00e5ff"/></g><g transform="translate(0 25.325)"><ellipse cx="2.162" cy="2.162" rx="2.162" ry="2.162" transform="translate(0 0)" fill="#00e5ff"/><ellipse cx="2.162" cy="2.162" rx="2.162" ry="2.162" transform="translate(8.442 0)" fill="#00e5ff"/><ellipse cx="2.162" cy="2.162" rx="2.162" ry="2.162" transform="translate(16.883 0)" fill="#00e5ff"/><ellipse cx="2.162" cy="2.162" rx="2.162" ry="2.162" transform="translate(25.325 0)" fill="#00e5ff"/></g></g></g></g></svg>